<svg width="24" height="24" viewBox="0 0 24 24" fill="none" xmlns="http://www.w3.org/2000/svg">
<path fill-rule="evenodd" clip-rule="evenodd" d="M22.1851 12.0118C22.1851 12.6193 21.6926 13.1118 21.0851 13.1118L9.35612 13.1118C8.74861 13.1118 8.25612 12.6193 8.25612 12.0118C8.25612 11.4043 8.74861 10.9118 9.35612 10.9118L21.0851 10.9118C21.6926 10.9118 22.1851 11.4043 22.1851 12.0118Z" fill="black"/>
<path fill-rule="evenodd" clip-rule="evenodd" d="M15.0742 18.0217C14.6447 17.592 14.6448 16.8955 15.0745 16.466L19.5293 12.0128L15.0743 7.55781C14.6447 7.12824 14.6447 6.43175 15.0743 6.00218C15.5039 5.5726 16.2004 5.5726 16.6299 6.00218L21.8629 11.2352C22.0693 11.4415 22.1851 11.7213 22.1851 12.0131C22.1851 12.3049 22.0691 12.5847 21.8628 12.791L16.6298 18.022C16.2001 18.4515 15.5036 18.4513 15.0742 18.0217Z" fill="black"/>
<path fill-rule="evenodd" clip-rule="evenodd" d="M9.0481 19.3039C9.39288 19.3039 9.72354 19.1669 9.96733 18.9231C10.2111 18.6793 10.3481 18.3487 10.3481 18.0039L10.3481 16.3099C10.3481 15.7024 10.8406 15.2099 11.4481 15.2099C12.0556 15.2099 12.5481 15.7024 12.5481 16.3099L12.5481 18.0039C12.5481 18.9322 12.1793 19.8224 11.523 20.4788C10.8666 21.1352 9.97635 21.5039 9.0481 21.5039L4.6001 21.5039C3.67184 21.5039 2.7816 21.1352 2.12522 20.4788C1.46884 19.8224 1.1001 18.9322 1.1001 18.0039L1.10009 6.01891C1.10048 5.0909 1.4694 4.20058 2.12574 3.54452C2.78207 2.88846 3.67209 2.51991 4.60009 2.51991L9.04809 2.51991C9.97635 2.51991 10.8666 2.88866 11.523 3.54503C12.1793 4.20141 12.5481 5.09165 12.5481 6.01991L12.5481 7.70991C12.5481 8.31742 12.0556 8.80991 11.4481 8.80991C10.8406 8.80991 10.3481 8.31742 10.3481 7.70991L10.3481 6.01991C10.3481 5.67513 10.2111 5.34447 9.96733 5.10067C9.72353 4.85687 9.39287 4.71991 9.04809 4.71991L4.60009 4.71991C4.25541 4.71991 3.92483 4.8568 3.68105 5.10048C3.43727 5.34416 3.30024 5.67468 3.3001 6.01937L3.3001 18.0039C3.3001 18.3487 3.43706 18.6793 3.68086 18.9231C3.92465 19.1669 4.25531 19.3039 4.6001 19.3039L9.0481 19.3039Z" fill="black"/>
</svg>
