<svg width="153" height="32" viewBox="0 0 153 32" fill="none" xmlns="http://www.w3.org/2000/svg">
<path d="M1.44818 30.7489C0.442436 30.7489 0 30.2887 0 29.2426V2.14196C0 1.09588 0.442436 0.635742 1.44818 0.635742H20.1057C21.1114 0.635742 21.5539 1.09588 21.5539 2.14196V7.03553C21.5539 8.07923 21.1114 8.53943 20.1057 8.53943H8.99693V11.7606H16.8376C17.8433 11.7606 18.2858 12.2208 18.2858 13.2669V17.7406C18.2858 18.7866 17.8433 19.2468 16.8376 19.2468H8.99693V22.8428H20.0943C21.1 22.8428 21.5424 23.303 21.5424 24.3491V29.2426C21.5424 30.2887 21.1 30.7489 20.0943 30.7489H1.44818Z" fill="#24A3FF"/>
<path d="M24.3184 18.4951V12.9018C24.3184 11.8557 24.7585 11.3955 25.7643 11.3955H36.5423C37.5458 11.3955 37.9882 11.8154 37.9882 12.9018V18.5069C37.9882 19.5933 37.5458 20.0108 36.5423 20.0108H25.7643C24.7585 19.9989 24.3184 19.5815 24.3184 18.4951Z" fill="#24A3FF"/>
<path d="M51.8209 30.749C45.0635 30.749 41.9277 28.0307 41.9277 22.2097V9.1634C41.9277 3.34951 45.0635 0.624023 51.8209 0.624023H61.8829C62.8886 0.624023 63.3311 1.08422 63.3311 2.1303V7.20883C63.3311 8.25491 62.8886 8.71511 61.8829 8.71511H53.52C51.8323 8.71511 51.0683 9.38398 51.0683 10.8048V20.8007C51.0683 22.2239 51.6704 22.8501 52.9179 22.8501H56.8177V16.327C56.8177 15.2809 57.2601 14.8208 58.2659 14.8208H64.4987C65.5022 14.8208 65.9446 15.2809 65.9446 16.327V29.2499C65.9446 30.296 65.5022 30.7562 64.4987 30.7562L51.8209 30.749Z" fill="#24A3FF"/>
<path d="M72.288 30.7489C71.2823 30.7489 70.8398 30.2887 70.8398 29.2426V2.14196C70.8398 1.09588 71.2823 0.635742 72.288 0.635742H78.5323C79.538 0.635742 79.9804 1.09588 79.9804 2.14196V22.8428H85.4881V16.0683C85.4881 15.0222 85.9305 14.562 86.9362 14.562H92.7654C93.7712 14.562 94.2136 15.0222 94.2136 16.0683V29.2426C94.2136 30.2887 93.7712 30.7489 92.7654 30.7489H72.288Z" fill="#24A3FF"/>
<path d="M110.851 31.3751C100.798 31.3751 98.3438 27.9451 98.3438 22.8357V8.575C98.3438 3.47272 100.798 0.00244141 110.851 0.00244141C120.903 0.00244141 123.314 3.47272 123.314 8.575V22.8357C123.314 27.9451 120.903 31.3751 110.851 31.3751ZM110.851 23.3101C113.786 23.3101 114.228 22.4752 114.228 21.3461V10.0955C114.228 9.00669 113.786 8.17176 110.851 8.17176C107.954 8.17176 107.473 9.00669 107.473 10.0955V21.3461C107.473 22.4681 107.952 23.3031 110.851 23.3031V23.3101Z" fill="#24A3FF"/>
<path d="M140.485 31.3751C130.432 31.3751 127.98 27.9451 127.98 22.8357V8.575C127.98 3.47272 130.432 0.00244141 140.485 0.00244141C150.538 0.00244141 152.951 3.47272 152.951 8.575V22.8357C152.951 27.9451 150.538 31.3751 140.485 31.3751ZM140.485 23.3101C143.42 23.3101 143.862 22.4752 143.862 21.3461V10.0955C143.862 9.00669 143.42 8.17176 140.485 8.17176C137.591 8.17176 137.107 9.00669 137.107 10.0955V21.3461C137.107 22.4681 137.6 23.3031 140.485 23.3031V23.3101Z" fill="#24A3FF"/>
</svg>
