<svg width="24" height="24" viewBox="0 0 24 24" fill="none" xmlns="http://www.w3.org/2000/svg">
<path fill-rule="evenodd" clip-rule="evenodd" d="M20.6434 17.1217C20.5603 16.6422 20.1446 16.2907 19.6577 16.2907H19.1589V10.6773L19.1554 10.4616C19.0423 6.59711 15.882 3.5 12 3.5C8.04686 3.5 4.84029 6.71312 4.84029 10.6782V16.2916H4.34143C3.85543 16.2916 3.43971 16.6422 3.35571 17.1226L3 19.1773H21L20.6434 17.1217Z" fill="black"/>
<circle cx="12" cy="4" r="2" fill="black"/>
<path d="M14 20.5C14 20.7626 13.9483 21.0227 13.8478 21.2654C13.7472 21.508 13.5999 21.7285 13.4142 21.9142C13.2285 22.0999 13.008 22.2472 12.7654 22.3478C12.5227 22.4483 12.2626 22.5 12 22.5C11.7374 22.5 11.4773 22.4483 11.2346 22.3478C10.992 22.2472 10.7715 22.0999 10.5858 21.9142C10.4001 21.7285 10.2528 21.508 10.1522 21.2654C10.0517 21.0227 10 20.7626 10 20.5L12 20.5H14Z" fill="black"/>
</svg>
