<svg width="20" height="22" viewBox="0 0 20 22" fill="none" xmlns="http://www.w3.org/2000/svg">
<path fill-rule="evenodd" clip-rule="evenodd" d="M14.887 5.64401C14.8871 6.28683 14.7605 6.92337 14.5146 7.51729C14.2686 8.1112 13.9081 8.65086 13.4536 9.10545C12.9991 9.56003 12.4595 9.92065 11.8657 10.1667C11.2718 10.4128 10.6353 10.5394 9.99249 10.5395C8.69425 10.5396 7.44914 10.024 6.53105 9.10615C5.61297 8.18826 5.09712 6.94325 5.09699 5.64501C5.09692 5.00219 5.22347 4.36565 5.46941 3.77174C5.71534 3.17782 6.07585 2.63817 6.53035 2.18358C7.44824 1.26549 8.69325 0.749644 9.99149 0.749512C11.2897 0.749379 12.5348 1.26497 13.4529 2.18287C14.371 3.10077 14.8869 4.34578 14.887 5.64401ZM9.99199 12.037C2.94299 12.037 0.200989 16.523 0.200989 18.61C0.200989 20.696 6.03799 21.252 9.99199 21.252C13.946 21.252 19.783 20.696 19.783 18.61C19.783 16.523 17.041 12.037 9.99199 12.037Z" fill="black"/>
</svg>
