<svg width="140" height="140" viewBox="0 0 140 140" fill="none" xmlns="http://www.w3.org/2000/svg">
<circle cx="70" cy="70" r="70" fill="#CEEDFF"/>
<g clip-path="url(#clip0_183_3183)">
<path opacity="0.5" d="M94.0502 39.94C95.4502 38.54 97.9202 38.73 99.5602 40.37L105.51 46.37C107.15 48.01 107.35 50.48 105.94 51.88L102.14 55.69L90.2402 43.8L94.0502 39.94Z" fill="white"/>
<path d="M86.4846 47.5444L45.8613 88.1677L57.7549 100.061L98.3782 59.438L86.4846 47.5444Z" fill="#2DB4FF"/>
<path d="M90.2879 43.7407L86.4766 47.552L98.3701 59.4455L102.181 55.6342L90.2879 43.7407Z" fill="#2080F1"/>
<path opacity="0.5" d="M45.8604 88.1699L57.7504 100.07L41.6504 104.28L45.8604 88.1699Z" fill="white"/>
<path d="M41.6504 104.28L48.5904 102.46C48.2711 101.226 47.6267 100.1 46.7245 99.1996C45.8222 98.2991 44.6951 97.657 43.4604 97.3401L41.6504 104.28Z" fill="#2080F1"/>
<path opacity="0.5" d="M41.0508 53.22L92.8708 105.05L104.701 93.14C105.272 92.5664 105.593 91.7897 105.593 90.98C105.593 90.1703 105.272 89.3935 104.701 88.82L57.1908 41.32C56.6172 40.7484 55.8405 40.4275 55.0308 40.4275C54.2211 40.4275 53.4443 40.7484 52.8708 41.32L41.0508 53.22Z" fill="white"/>
<path opacity="0.5" d="M74.4768 69.4104L65.8359 78.0513L67.9926 80.2079L76.6335 71.5671L74.4768 69.4104Z" fill="#2080F1"/>
<path opacity="0.5" d="M62.5905 64.0179L57.1953 69.4131L59.352 71.5698L64.7472 66.1745L62.5905 64.0179Z" fill="#2080F1"/>
<path opacity="0.5" d="M57.1877 52.1406L48.5469 60.7815L50.7036 62.9382L59.3444 54.2973L57.1877 52.1406Z" fill="#2080F1"/>
<path opacity="0.5" d="M79.8679 81.2979L74.4727 86.6931L76.6293 88.8498L82.0246 83.4546L79.8679 81.2979Z" fill="#2080F1"/>
<path opacity="0.5" d="M91.7541 86.6905L83.1133 95.3313L85.27 97.488L93.9108 88.8471L91.7541 86.6905Z" fill="#2080F1"/>
</g>
<defs>
<clipPath id="clip0_183_3183">
<rect width="65.93" height="66.05" fill="white" transform="translate(41 39)"/>
</clipPath>
</defs>
</svg>
