<svg width="140" height="140" viewBox="0 0 140 140" fill="none" xmlns="http://www.w3.org/2000/svg">
<circle cx="70" cy="70" r="70" fill="#FFE5CD"/>
<g clip-path="url(#clip0_183_3187)">
<path d="M97.15 54.22H42C39.2386 54.22 37 56.4585 37 59.22V94.71C37 97.4714 39.2386 99.71 42 99.71H97.15C99.9114 99.71 102.15 97.4714 102.15 94.71V59.22C102.15 56.4585 99.9114 54.22 97.15 54.22Z" fill="#F48400"/>
<path opacity="0.5" d="M97.6601 54.25H41.4901C40.2333 54.3223 39.0562 54.8885 38.2151 55.8251C37.374 56.7617 36.9373 57.9928 37.0001 59.25V71.25L69.5801 82.46L102.15 71.25V59.25C102.213 57.9928 101.776 56.7617 100.935 55.8251C100.094 54.8885 98.9168 54.3223 97.6601 54.25Z" fill="white"/>
<path opacity="0.5" d="M74.5309 78.8701H64.6309V85.0801H74.5309V78.8701Z" fill="white"/>
<path opacity="0.5" d="M55.0898 46.01V58.25H58.9598V49.44C58.9598 49.1748 59.0652 48.9204 59.2527 48.7329C59.4403 48.5454 59.6946 48.44 59.9598 48.44H79.1699C79.4351 48.44 79.6894 48.5454 79.877 48.7329C80.0645 48.9204 80.1699 49.1748 80.1699 49.44V58.25H84.0399V46.02C84.0399 45.7548 83.9345 45.5004 83.7469 45.3129C83.5594 45.1254 83.3051 45.02 83.0399 45.02H56.0898C55.8264 45.02 55.5735 45.124 55.3863 45.3094C55.199 45.4947 55.0925 45.7465 55.0898 46.01Z" fill="white"/>
</g>
<defs>
<clipPath id="clip0_183_3187">
<rect width="65.15" height="54.71" fill="white" transform="translate(37 45)"/>
</clipPath>
</defs>
</svg>
