<svg width="140" height="140" viewBox="0 0 140 140" fill="none" xmlns="http://www.w3.org/2000/svg">
<circle cx="70" cy="70" r="70" fill="#F0CEFF"/>
<g clip-path="url(#clip0_183_3186)">
<path d="M97.6058 50H39.9534C36.6654 50 34 52.6486 34 55.9159V91.6713C34 94.9386 36.6654 97.5872 39.9534 97.5872H97.6058C100.894 97.5872 103.559 94.9386 103.559 91.6713V55.9159C103.559 52.6486 100.894 50 97.6058 50Z" fill="#C845FF"/>
<path opacity="0.5" d="M77.1747 64.0088H42.3594V68.919H77.1747V64.0088Z" fill="white"/>
<path opacity="0.5" d="M61.8269 78.8931H42.3594V83.8032H61.8269V78.8931Z" fill="white"/>
<path d="M99.1777 104L92.1288 101.066L85.0801 104V86.8914C85.9452 87.901 87.0282 88.704 88.2485 89.2407C89.4688 89.7774 90.7951 90.0339 92.1288 89.9913C93.4626 90.0339 94.789 89.7774 96.0093 89.2407C97.2296 88.704 98.3126 87.901 99.1777 86.8914V104Z" fill="#8339F7"/>
<path opacity="0.5" d="M94.3199 68.7178C94.4203 69.0731 94.6069 69.3986 94.8632 69.6658C95.1195 69.933 95.4377 70.1338 95.7901 70.2505C96.1425 70.3673 96.5184 70.3964 96.8848 70.3355C97.2512 70.2745 97.5969 70.1253 97.8919 69.9009C98.2817 69.5923 98.7625 69.4187 99.2608 69.4066C99.7591 69.3946 100.248 69.5447 100.652 69.8341C101.057 70.1235 101.355 70.5364 101.501 71.0098C101.648 71.4832 101.635 71.9913 101.464 72.4566C101.34 72.8033 101.302 73.175 101.356 73.5392C101.409 73.9035 101.551 74.2493 101.769 74.5467C101.987 74.8441 102.275 75.0839 102.608 75.2455C102.941 75.407 103.308 75.4854 103.679 75.4737C104.17 75.4636 104.652 75.6111 105.052 75.8945C105.453 76.1779 105.75 76.5821 105.901 77.0469C106.052 77.5118 106.049 78.0126 105.891 78.4752C105.733 78.9378 105.429 79.3374 105.024 79.6148C104.719 79.8237 104.471 80.103 104.299 80.4286C104.127 80.7542 104.037 81.1164 104.037 81.4842C104.037 81.8519 104.127 82.2141 104.299 82.5398C104.471 82.8654 104.719 83.1447 105.024 83.3536C105.429 83.631 105.733 84.0306 105.891 84.4932C106.049 84.9557 106.052 85.4566 105.901 85.9215C105.75 86.3863 105.453 86.7904 105.052 87.0738C104.652 87.3572 104.17 87.5048 103.679 87.4947C103.308 87.4851 102.94 87.5652 102.608 87.7282C102.275 87.8912 101.987 88.1322 101.77 88.4303C101.552 88.7285 101.41 89.0748 101.357 89.4395C101.303 89.8042 101.34 90.1762 101.464 90.5236C101.635 90.9889 101.648 91.497 101.501 91.9704C101.355 92.4438 101.057 92.8567 100.652 93.1461C100.248 93.4355 99.7591 93.5856 99.2608 93.5735C98.7625 93.5615 98.2817 93.3879 97.8919 93.0793C97.5969 92.8549 97.2512 92.7057 96.8848 92.6447C96.5184 92.5838 96.1425 92.6129 95.7901 92.7297C95.4377 92.8464 95.1195 93.0471 94.8632 93.3143C94.6069 93.5815 94.4203 93.9071 94.3199 94.2624C94.1792 94.7313 93.89 95.1425 93.4953 95.4349C93.1005 95.7273 92.6213 95.8852 92.129 95.8852C91.6367 95.8852 91.1575 95.7273 90.7628 95.4349C90.368 95.1425 90.0788 94.7313 89.9382 94.2624C89.8377 93.9071 89.6512 93.5815 89.3949 93.3143C89.1386 93.0471 88.8203 92.8464 88.4679 92.7297C88.1155 92.6129 87.7397 92.5838 87.3733 92.6447C87.0069 92.7057 86.6611 92.8549 86.3662 93.0793C85.9763 93.3879 85.4956 93.5615 84.9973 93.5735C84.499 93.5856 84.0104 93.4355 83.6058 93.1461C83.2013 92.8567 82.9031 92.4438 82.7566 91.9704C82.6101 91.497 82.6233 90.9889 82.7942 90.5236C82.9179 90.1762 82.9547 89.8042 82.9015 89.4395C82.8483 89.0748 82.7066 88.7285 82.4886 88.4303C82.2706 88.1322 81.9829 87.8912 81.6503 87.7282C81.3177 87.5652 80.9502 87.4851 80.5795 87.4947C80.088 87.5048 79.6063 87.3572 79.2059 87.0738C78.8055 86.7904 78.5077 86.3863 78.3567 85.9215C78.2056 85.4566 78.2094 84.9557 78.3674 84.4932C78.5255 84.0306 78.8294 83.631 79.2341 83.3536C79.5386 83.1447 79.7875 82.8654 79.9595 82.5398C80.1314 82.2141 80.2213 81.8519 80.2213 81.4842C80.2213 81.1164 80.1314 80.7542 79.9595 80.4286C79.7875 80.103 79.5386 79.8237 79.2341 79.6148C78.8294 79.3374 78.5255 78.9378 78.3674 78.4752C78.2094 78.0126 78.2056 77.5118 78.3567 77.0469C78.5077 76.5821 78.8055 76.1779 79.2059 75.8945C79.6063 75.6111 80.088 75.4636 80.5795 75.4737C80.9497 75.4854 81.3172 75.407 81.65 75.2455C81.9828 75.0839 82.2709 74.8441 82.4892 74.5467C82.7074 74.2493 82.8494 73.9035 82.9025 73.5392C82.9557 73.175 82.9185 72.8033 82.7942 72.4566C82.6233 71.9913 82.6101 71.4832 82.7566 71.0098C82.9031 70.5364 83.2013 70.1235 83.6058 69.8341C84.0104 69.5447 84.499 69.3946 84.9973 69.4066C85.4956 69.4187 85.9763 69.5923 86.3662 69.9009C86.6611 70.1253 87.0069 70.2745 87.3733 70.3355C87.7397 70.3964 88.1155 70.3673 88.4679 70.2505C88.8203 70.1338 89.1386 69.933 89.3949 69.6658C89.6512 69.3986 89.8377 69.0731 89.9382 68.7178C90.0788 68.2489 90.368 67.8377 90.7628 67.5453C91.1575 67.2529 91.6367 67.095 92.129 67.095C92.6213 67.095 93.1005 67.2529 93.4953 67.5453C93.89 67.8377 94.1792 68.2489 94.3199 68.7178Z" fill="white"/>
<path d="M92.1277 89.9913C96.8689 89.9913 100.712 86.172 100.712 81.4606C100.712 76.7492 96.8689 72.9299 92.1277 72.9299C87.3865 72.9299 83.543 76.7492 83.543 81.4606C83.543 86.172 87.3865 89.9913 92.1277 89.9913Z" stroke="white" stroke-miterlimit="10"/>
</g>
<defs>
<clipPath id="clip0_183_3186">
<rect width="72" height="54" fill="white" transform="translate(34 50)"/>
</clipPath>
</defs>
</svg>
