<svg width="140" height="140" viewBox="0 0 140 140" fill="none" xmlns="http://www.w3.org/2000/svg">
<circle cx="70" cy="70" r="70" fill="#A3F4EF"/>
<path d="M107.58 96.8201H30.1403C29.7329 96.819 29.3343 96.7017 28.9913 96.4819C28.6483 96.2621 28.3751 95.949 28.204 95.5793C28.0328 95.2096 27.9707 94.7988 28.0249 94.395C28.0792 93.9913 28.2476 93.6114 28.5103 93.3001L34.8603 85.8101C35.061 85.574 35.3109 85.3846 35.5924 85.2551C35.874 85.1255 36.1804 85.059 36.4903 85.0601H101.19C101.5 85.059 101.807 85.1255 102.088 85.2551C102.37 85.3846 102.619 85.574 102.82 85.8101L109.19 93.3001C109.452 93.6101 109.62 93.9882 109.675 94.3901C109.73 94.7921 109.67 95.2014 109.501 95.5703C109.332 95.9393 109.062 96.2527 108.722 96.4739C108.382 96.6952 107.986 96.8153 107.58 96.8201Z" fill="#18B6D9"/>
<path opacity="0.5" d="M39.8594 40H97.8594C98.9202 40 99.9377 40.4214 100.688 41.1716C101.438 41.9217 101.859 42.9391 101.859 44V87.25H35.8594V44C35.8594 42.9391 36.2808 41.9217 37.0309 41.1716C37.7811 40.4214 38.7985 40 39.8594 40Z" fill="white"/>
<path d="M97.0809 44.98H40.6309V81.26H97.0809V44.98Z" fill="#30D8EF"/>
<g opacity="0.8">
<path d="M50 65.0387V62.2247L61 56V59.4033L54.2348 63.5727V63.6906L61 67.8674V72L50 65.0387Z" fill="white"/>
<path d="M70.2354 52H74L68.7269 75H65L70.2354 52Z" fill="white"/>
<path d="M77 67.8674L83.7652 63.6906V63.5727L77 59.4033V56L88 62.2247V65.0387L77 72V67.8674Z" fill="white"/>
</g>
</svg>
