<svg width="140" height="140" viewBox="0 0 140 140" fill="none" xmlns="http://www.w3.org/2000/svg">
<circle cx="70" cy="70" r="70" fill="#BAEEDA"/>
<g clip-path="url(#clip0_183_3189)">
<path d="M70.9395 99.9779H71.0057C87.5727 94.8795 106.945 99.9779 106.945 99.9779V55.4444C101.38 52.5561 95.207 51.0488 88.9422 51.0488C82.6774 51.0488 76.504 52.5561 70.9395 55.4444" fill="#14AF77"/>
<path d="M70.9945 55.4775C65.4319 52.5894 59.2603 51.082 52.9972 51.082C46.7342 51.082 40.5626 52.5894 35 55.4775V100.011C35 100.011 54.3502 94.8794 70.9393 100.011H71.0055" fill="#14AF77"/>
<path d="M70.9938 99.5677V55.4886C70.9938 55.4886 64.5327 44.6821 37.1641 49.1045V94.835C37.1641 94.835 60.0265 91.8092 70.9938 99.5677Z" fill="#48D8A1"/>
<path d="M70.9941 99.5677V55.4886C70.9941 55.4886 77.4663 44.6821 104.835 49.1045V94.2254C104.835 94.2254 82.845 89.3376 70.9941 99.5677Z" fill="#48D8A1"/>
<g opacity="0.5">
<g opacity="0.5">
<path d="M70.9395 99.5676V55.4885C70.9395 55.4885 76.8483 42.1883 101.61 41.9556V87.6861C101.61 87.6861 84.5685 87.143 70.9395 99.5676Z" fill="white"/>
</g>
</g>
</g>
<defs>
<clipPath id="clip0_183_3189">
<rect width="72" height="58" fill="white" transform="translate(35 42)"/>
</clipPath>
</defs>
</svg>
