<svg width="140" height="140" viewBox="0 0 140 140" fill="none" xmlns="http://www.w3.org/2000/svg">
<circle cx="70" cy="70" r="70" fill="#FFC9DC"/>
<g clip-path="url(#clip0_183_3188)">
<path d="M104.492 72.019H101.912C101.47 72.019 101.111 72.3791 101.111 72.8233V80.7877C101.111 81.2318 101.47 81.5919 101.912 81.5919H104.492C104.934 81.5919 105.293 81.2318 105.293 80.7877V72.8233C105.293 72.3791 104.934 72.019 104.492 72.019Z" fill="#F21971"/>
<path d="M103.993 56.1128H102.402V73.8623H103.993V56.1128Z" fill="#F21971"/>
<path d="M96.5627 61.9659C95.6396 54.6494 84.1067 48.8521 70.0159 48.8521C55.925 48.8521 44.4366 54.6494 43.4802 61.9659H43.4023V88.8861H43.4802C44.4032 96.2137 55.925 102 70.0159 102C84.1067 102 95.5951 96.2137 96.5627 88.8861H96.6405V61.9659H96.5627Z" fill="#F96298"/>
<path opacity="0.5" d="M110.043 57.7772L72.8305 70.6007C70.9968 71.2373 69.0034 71.2373 67.1697 70.6007L29.9575 57.7772C29.3869 57.5812 28.8918 57.2109 28.5411 56.7182C28.1905 56.2255 28.002 55.635 28.002 55.0294C28.002 54.4237 28.1905 53.8333 28.5411 53.3406C28.8918 52.8478 29.3869 52.4776 29.9575 52.2815L67.0363 39.4916C68.9577 38.8329 71.0425 38.8329 72.964 39.4916L110.043 52.3374C110.594 52.5447 111.07 52.9163 111.405 53.4023C111.741 53.8884 111.921 54.4658 111.921 55.0573C111.921 55.6488 111.741 56.2262 111.405 56.7123C111.07 57.1983 110.594 57.5699 110.043 57.7772Z" fill="white"/>
</g>
<defs>
<clipPath id="clip0_183_3188">
<rect width="84" height="63" fill="white" transform="translate(28 39)"/>
</clipPath>
</defs>
</svg>
