<svg width="140" height="140" viewBox="0 0 140 140" fill="none" xmlns="http://www.w3.org/2000/svg">
<circle cx="70" cy="70" r="70" fill="#D8CBFF"/>
<g clip-path="url(#clip0_183_3191)">
<path d="M63.7298 38C57.1964 38.1069 50.8388 40.1232 45.4483 43.7978C40.0577 47.4724 35.8722 52.6431 33.4126 58.6664C24.3255 81.7218 42.6031 103.52 59.3758 104.011C64.8211 104.16 68.5663 98.479 67.0154 93.2896C66.5817 91.8398 66.5314 90.3031 66.8693 88.8283C67.2072 87.3535 67.9219 85.9904 68.9442 84.8709C69.9666 83.7513 71.262 82.9133 72.7052 82.4377C74.1484 81.9621 75.6905 81.8652 77.1824 82.1562L87.4183 84.0422C89.6446 84.432 91.9355 83.9296 93.7908 82.6446C95.6462 81.3597 96.9152 79.3966 97.321 77.1839C98.193 72.3356 97.9739 67.3553 96.6795 62.6013C95.3851 57.8474 93.0476 53.4381 89.8351 49.6908C86.6227 45.9435 82.6152 42.9514 78.1013 40.9299C73.5873 38.9084 68.679 37.9078 63.7298 38ZM42.3159 75.7208C41.7758 75.6218 41.2606 75.4179 40.7997 75.1207C40.3388 74.8235 39.9412 74.4389 39.6297 73.9889C39.3182 73.5388 39.0989 73.0321 38.9842 72.4977C38.8695 71.9633 38.8618 71.4116 38.9614 70.8743C39.1552 69.8043 39.7632 68.8528 40.6548 68.2243C41.5464 67.5959 42.6502 67.3407 43.729 67.5137C44.7916 67.7249 45.7326 68.3331 46.3586 69.2132C46.9846 70.0933 47.2481 71.1785 47.095 72.2459C47.0199 72.7901 46.8353 73.3137 46.552 73.7852C46.2687 74.2567 45.8926 74.6664 45.4464 74.9898C45.0001 75.3132 44.4928 75.5437 43.9549 75.6673C43.417 75.791 42.8595 75.8053 42.3159 75.7094V75.7208ZM49.4271 60.1067C48.3377 59.9039 47.3734 59.2802 46.7448 58.3721C46.1162 57.4639 45.8745 56.3451 46.0725 55.2601C46.2762 54.1739 46.9047 53.2124 47.8201 52.5866C48.7354 51.9609 49.8628 51.722 50.955 51.9224C51.4948 52.0213 52.0096 52.2253 52.47 52.5226C52.9304 52.82 53.3272 53.2048 53.6378 53.6551C53.9484 54.1053 54.1666 54.6122 54.2799 55.1465C54.3932 55.6809 54.3993 56.2322 54.298 56.7689C54.1985 57.3064 53.9936 57.819 53.6949 58.2776C53.3962 58.7362 53.0097 59.1318 52.5574 59.4417C52.1051 59.7516 51.5958 59.9699 51.0587 60.084C50.5216 60.1981 49.9672 60.2058 49.4271 60.1067ZM67.3945 54.9515C66.8547 54.8526 66.3398 54.6486 65.8795 54.3512C65.4191 54.0539 65.0222 53.6691 64.7117 53.2188C64.4011 52.7686 64.1829 52.2617 64.0696 51.7274C63.9563 51.193 63.9501 50.6417 64.0514 50.1049C64.1465 49.5616 64.3498 49.0427 64.6493 48.5787C64.9488 48.1147 65.3385 47.7149 65.7955 47.4029C66.2526 47.0908 66.7677 46.8729 67.3105 46.7617C67.8534 46.6506 68.4132 46.6486 68.9569 46.7558C69.4973 46.8533 70.013 47.0564 70.4742 47.3533C70.9353 47.6503 71.3328 48.0351 71.6436 48.4858C71.9545 48.9364 72.1725 49.4438 72.2851 49.9787C72.3978 50.5136 72.4028 51.0655 72.2999 51.6023C72.2045 52.141 72.0027 52.6555 71.7061 53.1161C71.4096 53.5766 71.0243 53.9741 70.5724 54.2856C70.1205 54.597 69.611 54.8162 69.0734 54.9305C68.5358 55.0448 67.9808 55.052 67.4404 54.9515H67.3945ZM82.329 66.1649C81.7892 66.0659 81.2744 65.862 80.814 65.5646C80.3536 65.2673 79.9568 64.8825 79.6462 64.4322C79.3356 63.9819 79.1174 63.4751 79.0041 62.9407C78.8908 62.4064 78.8847 61.855 78.986 61.3183C79.0855 60.7809 79.2904 60.2683 79.5891 59.8097C79.8878 59.3511 80.2743 58.9555 80.7266 58.6456C81.179 58.3356 81.6882 58.1174 82.2253 58.0033C82.7624 57.8892 83.3168 57.8815 83.8569 57.9806C84.9487 58.1833 85.915 58.8086 86.5439 59.7193C87.1728 60.6301 87.4129 61.7519 87.2115 62.8386C87.0101 63.9199 86.3878 64.8783 85.4799 65.5055C84.5721 66.1327 83.4521 66.3779 82.3635 66.1877L82.329 66.1649Z" fill="#A98AFF"/>
<path d="M84.3386 84.0538C84.18 83.9834 84.0145 83.9298 83.8446 83.8938H83.6493C82.6361 83.6334 81.5644 83.7179 80.605 84.1338C79.9953 84.4003 79.4478 84.7895 78.9967 85.2769C78.6193 85.7128 78.3306 86.2175 78.1465 86.7628C77.9519 87.3133 77.8585 87.8941 77.8708 88.4774C77.8799 88.7342 77.9068 88.9901 77.9512 89.2433C78.0087 89.5976 78.1465 89.9405 78.227 90.2949C78.3214 90.6419 78.3753 90.9986 78.3878 91.3579C78.3878 91.3579 78.3878 91.3579 78.3878 91.4265C78.4262 92.0142 78.3719 92.6043 78.227 93.1754C78.0984 93.75 77.8814 94.3013 77.5836 94.8099C77.3758 95.1841 77.1252 95.5331 76.8369 95.8501C76.1156 96.6607 75.1923 97.2679 74.1602 97.6104C76.4901 98.1605 78.9256 98.0807 81.2141 97.3793C83.5027 96.6779 85.5611 95.3804 87.1762 93.6212C88.3851 92.2753 89.2935 90.6897 89.8414 88.9689L84.3386 84.0538Z" fill="#5F39F7"/>
<path opacity="0.5" d="M85.5809 81.2388L108.899 55.125C109.719 54.2071 110.871 53.6508 112.103 53.5784C113.335 53.5061 114.545 53.9235 115.467 54.739C116.39 55.5545 116.949 56.7012 117.022 57.9268C117.094 59.1525 116.675 60.3567 115.855 61.2745L92.5372 87.3883L85.5723 81.2312L85.5809 81.2388Z" fill="white"/>
<path d="M92.7824 89.5861C92.5269 89.8678 92.1701 90.0378 91.7893 90.0592C91.4086 90.0806 91.0347 89.9517 90.749 89.7004L83.2013 83.0364C83.0598 82.9113 82.9445 82.7597 82.8621 82.5901C82.7796 82.4206 82.7317 82.2365 82.721 82.0485C82.7104 81.8605 82.7371 81.6722 82.7998 81.4945C82.8626 81.3168 82.96 81.1532 83.0864 81.0131C83.2113 80.8715 83.3631 80.7558 83.5331 80.6728C83.703 80.5898 83.8878 80.541 84.0768 80.5294C84.2658 80.5177 84.4553 80.5433 84.6343 80.6047C84.8133 80.6662 84.9783 80.7623 85.1198 80.8874L92.6675 87.5628C92.9507 87.817 93.1215 88.1721 93.1431 88.5509C93.1646 88.9298 93.035 89.3018 92.7824 89.5861Z" fill="white"/>
</g>
<defs>
<clipPath id="clip0_183_3191">
<rect width="86" height="66" fill="white" transform="translate(31 38)"/>
</clipPath>
</defs>
</svg>
