<svg width="140" height="140" viewBox="0 0 140 140" fill="none" xmlns="http://www.w3.org/2000/svg">
<circle cx="70" cy="70" r="70" fill="#D6EEBD"/>
<g clip-path="url(#clip0_183_3193)">
<path d="M64.9001 85.68C65.5169 84.8052 66.3832 84.1369 67.3858 83.7622C68.3885 83.3876 69.4808 83.3241 70.5201 83.58C71.1962 83.7388 71.8343 84.0294 72.3979 84.4351C72.9615 84.8409 73.4395 85.3539 73.8046 85.9447C74.1697 86.5354 74.4146 87.1924 74.5253 87.878C74.6361 88.5636 74.6105 89.2643 74.4501 89.94C74.1747 91.1102 73.5083 92.1513 72.5609 92.8914C71.6136 93.6314 70.4421 94.026 69.2401 94.01C68.3896 94.0084 67.5519 93.8033 66.7969 93.4119C66.0419 93.0205 65.3915 92.4541 64.9001 91.76V103.66H91.6001C92.0199 103.66 92.4355 103.577 92.8232 103.416C93.2109 103.255 93.563 103.019 93.8593 102.722C94.1557 102.425 94.3904 102.072 94.5502 101.684C94.7099 101.296 94.7914 100.88 94.7901 100.46V73.78H82.7901C83.365 73.3895 83.857 72.8893 84.2382 72.3082C84.6193 71.7271 84.882 71.0765 85.0111 70.3936C85.1403 69.7107 85.1333 69.0091 84.9907 68.329C84.8481 67.6488 84.5726 67.0035 84.1801 66.43C83.3879 65.2733 82.1697 64.4776 80.7921 64.2171C79.4146 63.9566 77.9899 64.2525 76.8301 65.04C75.6728 65.832 74.8774 67.0511 74.6187 68.4293C74.3599 69.8076 74.6589 71.2322 75.4501 72.39C75.8181 72.9364 76.2863 73.4081 76.8301 73.78H64.8301L64.9001 85.68Z" fill="#52B026"/>
<path d="M53.0293 73.7799C53.5976 74.1782 54.0819 74.6846 54.4544 75.2701C54.8269 75.8557 55.0803 76.5089 55.2001 77.1925C55.3199 77.8761 55.3038 78.5766 55.1526 79.2539C55.0015 79.9312 54.7183 80.5721 54.3193 81.1399C53.9201 81.7086 53.4128 82.1931 52.8264 82.5657C52.24 82.9383 51.5859 83.1918 50.9015 83.3116C50.2171 83.4314 49.5158 83.4152 48.8377 83.2639C48.1596 83.1126 47.5179 82.8292 46.9493 82.4299C45.8024 81.6223 45.0232 80.3921 44.7832 79.01C44.5431 77.6279 44.8619 76.2071 45.6693 75.06C46.0177 74.5616 46.451 74.1283 46.9493 73.7799H35.0293V100.46C35.0293 101.309 35.3664 102.123 35.9666 102.723C36.5667 103.323 37.3806 103.66 38.2293 103.66H64.9293V91.6599C65.4712 92.4638 66.2254 93.1016 67.1081 93.5023C67.9908 93.9031 68.9675 94.0511 69.9293 93.9299C70.6195 93.86 71.2891 93.6547 71.9 93.3257C72.5108 92.9968 73.0508 92.5508 73.4891 92.0131C73.9275 91.4753 74.2556 90.8565 74.4546 90.1919C74.6537 89.5274 74.7198 88.8301 74.6493 88.1399C74.5142 86.8221 73.8897 85.6029 72.899 84.7234C71.9084 83.8439 70.6238 83.368 69.2993 83.3899C68.4406 83.3899 67.595 83.6004 66.8366 84.0032C66.0782 84.4059 65.4302 84.9885 64.9493 85.7V73.7L53.0293 73.7799Z" fill="#9BD651"/>
<path opacity="0.5" d="M91.6007 68.72C90.4579 67.9161 89.6812 66.6914 89.4411 65.315C89.2011 63.9386 89.5174 62.5232 90.3207 61.38C91.1244 60.2401 92.3472 59.4653 93.7212 59.2254C95.0951 58.9854 96.5082 59.3 97.6507 60.1C98.7934 60.9039 99.5702 62.1286 99.8102 63.505C100.05 64.8814 99.7339 66.2968 98.9307 67.44C98.5797 67.9362 98.1468 68.369 97.6507 68.72H109.491V42.32C109.491 41.4395 109.141 40.595 108.518 39.9724C107.896 39.3498 107.051 39 106.171 39H79.7507V50.89C79.2076 50.088 78.4528 49.4522 77.5701 49.0532C76.6875 48.6543 75.7116 48.5078 74.7507 48.63C73.3641 48.7929 72.0988 49.4994 71.2326 50.5943C70.3665 51.6893 69.9701 53.0831 70.1307 54.47C70.2847 55.7516 70.9029 56.9324 71.8684 57.7892C72.8339 58.646 74.0798 59.1195 75.3707 59.12C76.2257 59.1214 77.068 58.9123 77.8231 58.5112C78.5783 58.1101 79.2231 57.5293 79.7007 56.82V68.72H91.6007Z" fill="white"/>
<path d="M64.9 61.8799C64.2813 62.7526 63.4148 63.4193 62.4128 63.7938C61.4107 64.1682 60.3193 64.233 59.28 63.9799C57.9159 63.6568 56.7359 62.8056 55.999 61.6131C55.2622 60.4206 55.0287 58.9844 55.35 57.6199C55.6268 56.4497 56.2932 55.4083 57.24 54.6669C58.1868 53.9255 59.3575 53.528 60.56 53.5399C61.4104 53.5415 62.2482 53.7466 63.0032 54.138C63.7582 54.5294 64.4086 55.0958 64.9 55.7899V43.8899H38.2C37.3513 43.8899 36.5374 44.227 35.9373 44.8272C35.3371 45.4273 35 46.2412 35 47.0899V73.7799H47C46.4259 74.1712 45.9347 74.6719 45.5546 75.2534C45.1744 75.8349 44.9127 76.4857 44.7845 77.1685C44.6563 77.8513 44.6641 78.5527 44.8075 79.2325C44.9508 79.9122 45.227 80.557 45.62 81.1299C46.0104 81.7036 46.5102 82.1946 47.0908 82.5747C47.6714 82.9547 48.3213 83.2164 49.0033 83.3446C49.6853 83.4728 50.3859 83.4651 51.0649 83.3218C51.7439 83.1786 52.3879 82.9027 52.96 82.5099C53.5348 82.1194 54.027 81.6192 54.4081 81.0381C54.7893 80.457 55.0519 79.8064 55.1811 79.1235C55.3102 78.4407 55.3033 77.739 55.1606 77.0589C55.018 76.3787 54.7426 75.7334 54.35 75.1599C53.9781 74.6162 53.5064 74.1479 52.96 73.7799H64.96L64.9 61.8799Z" fill="#70C14A"/>
</g>
<defs>
<clipPath id="clip0_183_3193">
<rect width="74.49" height="64.66" fill="white" transform="translate(35 39)"/>
</clipPath>
</defs>
</svg>
