<svg width="140" height="140" viewBox="0 0 140 140" fill="none" xmlns="http://www.w3.org/2000/svg">
<circle cx="70" cy="70" r="70" fill="#FDC0C0"/>
<path d="M101.619 56.2549H71.4885C69.0689 56.2549 67.1074 58.2046 67.1074 60.6097V102.645C67.1074 105.05 69.0689 107 71.4885 107H101.619C104.039 107 106.001 105.05 106.001 102.645V60.6097C106.001 58.2046 104.039 56.2549 101.619 56.2549Z" fill="#F47474"/>
<g opacity="0.6">
<path d="M95.0141 77.9747C93.8742 81.1737 92.1349 84.129 89.8883 86.6845C92.6341 88.6243 95.7622 89.9638 99.0667 90.6147C98.0429 91.6999 97.1631 92.911 96.4489 94.2184C92.9285 93.3883 89.6368 91.7932 86.8105 89.5478C83.9719 91.7066 80.7507 93.3168 77.3145 94.2946C76.6739 93.0514 75.9069 91.8767 75.0254 90.7889C78.2596 90.0551 81.3229 88.7137 84.0505 86.8369C81.9118 84.1802 80.2315 81.1891 79.0779 77.9856H75.6168V74.4799H85.1676V70.7239H88.8916V74.4799H98.5628V77.9856L95.0141 77.9747ZM83.1304 77.9747C84.0468 80.2484 85.3677 82.3394 87.0296 84.1477C88.6333 82.3326 89.888 80.2402 90.7316 77.9747H83.1304Z" fill="white"/>
</g>
<path opacity="0.5" d="M67.5121 33H37.3811C34.9615 33 33 34.9497 33 37.3549V79.3902C33 81.7953 34.9615 83.745 37.3811 83.745H67.5121C69.9317 83.745 71.8932 81.7953 71.8932 79.3902V37.3549C71.8932 34.9497 69.9317 33 67.5121 33Z" fill="white"/>
<path d="M56.1867 65.3458H48.5745L47.0849 71.2249H40.7871L48.7826 45.6292H56.1867L64.1821 71.2249H57.6762L56.1867 65.3458ZM55.0147 60.599L54.4561 58.4216C53.7661 55.874 53.1089 52.8147 52.4189 50.2018H52.2765C51.6522 52.88 50.9622 55.874 50.305 58.4216L49.7574 60.599H55.0147Z" fill="#E44949"/>
</svg>
