<svg width="127" height="128" viewBox="0 0 127 128" fill="none" xmlns="http://www.w3.org/2000/svg">
<g clip-path="url(#clip0_308_1094)">
<path d="M52.7442 5H60.3647C65.4152 5 70.4162 5.99395 75.0823 7.92509C79.7484 9.85624 83.9881 12.6868 87.5593 16.2551C91.1306 19.8233 93.9634 24.0595 95.8962 28.7217C97.8289 33.3839 98.8237 38.3808 98.8237 43.4272V81.8543H14.2852V43.4272C14.2852 33.2356 18.3371 23.4615 25.5495 16.2551C32.762 9.04856 42.5442 5 52.7442 5V5Z" fill="#E9E9E9"/>
<path d="M62.1665 5C72.3665 5 82.1487 9.04856 89.3611 16.2551C96.5736 23.4615 100.626 33.2356 100.626 43.4272V81.8543H23.7129V43.4272C23.7129 33.2366 27.7641 23.4633 34.9754 16.257C42.1867 9.05063 51.9675 5.00143 62.1665 5V5Z" fill="#EFEFEF"/>
<path d="M100.599 52.3715V50.2346H58.4969V36.6197H99.9965C99.8669 35.8993 99.7265 35.1897 99.5482 34.4855H83.4836V20.8679H93.2698C92.7298 20.1358 92.1735 19.4244 91.601 18.7336H58.4941V5H56.3582V18.7336H23.2513C22.6698 19.4244 22.1136 20.1358 21.5825 20.8679H35.2114V34.4855H15.3095C15.142 35.1897 14.9908 35.8993 14.8612 36.6197H56.3608V50.2346H14.2617V52.3715H35.2114V65.9972H14.2752V68.1315H36.1484C36.2248 68.1495 36.3043 68.1495 36.3806 68.1315H56.3635V81.8651H58.4996V68.1315H82.3008C82.3395 68.134 82.3783 68.134 82.417 68.1315C82.4556 68.1342 82.4944 68.1342 82.5331 68.1315H100.601V65.9972H83.4863V52.3715H100.599ZM37.3339 34.4855V20.8679H81.3503V34.4855H37.3339ZM81.3503 65.9864H37.3339V52.3715H81.3503V65.9864Z" fill="#E9E9E9"/>
<path d="M85.5251 43.4273H96.5427C100.106 43.4273 103.524 44.8418 106.044 47.3597C108.564 49.8775 109.98 53.2925 109.98 56.8533V82.0028H72.0879V56.8506C72.0879 53.2898 73.5036 49.8748 76.0235 47.357C78.5435 44.8391 81.9613 43.4246 85.5251 43.4246V43.4273Z" fill="#E9E9E9"/>
<path d="M98.8239 43.4272C102.388 43.4272 105.805 44.8418 108.325 47.3596C110.845 49.8775 112.261 53.2925 112.261 56.8533V82.0028H85.3867V56.8506C85.3874 53.2902 86.8034 49.876 89.3233 47.3587C91.8432 44.8414 95.2606 43.4272 98.8239 43.4272Z" fill="#EFEFEF"/>
<path d="M98.8236 49.6707C99.8244 49.6707 100.815 49.8676 101.74 50.2503C102.664 50.6329 103.505 51.1938 104.212 51.9008C104.92 52.6078 105.481 53.4472 105.864 54.371C106.247 55.2948 106.444 56.2849 106.444 57.2849V82H91.2031V57.2849C91.2031 55.2654 92.006 53.3287 93.4351 51.9008C94.8642 50.4729 96.8026 49.6707 98.8236 49.6707Z" fill="#E9E9E9"/>
</g>
<path d="M3.16011 121.681C2.35443 121.681 2 121.326 2 120.521V99.6479C2 98.8422 2.35443 98.4878 3.16011 98.4878H18.1063C18.912 98.4878 19.2664 98.8422 19.2664 99.6479V103.417C19.2664 104.221 18.912 104.575 18.1063 104.575H9.20727V107.056H15.4883C16.294 107.056 16.6484 107.411 16.6484 108.216V111.662C16.6484 112.467 16.294 112.822 15.4883 112.822H9.20727V115.592H18.0971C18.9028 115.592 19.2572 115.946 19.2572 116.752V120.521C19.2572 121.326 18.9028 121.681 18.0971 121.681H3.16011Z" fill="#E9E9E9"/>
<path d="M21.4805 112.243V107.935C21.4805 107.129 21.8331 106.775 22.6387 106.775H31.2729C32.0767 106.775 32.4311 107.098 32.4311 107.935V112.252C32.4311 113.089 32.0767 113.41 31.2729 113.41H22.6387C21.8331 113.401 21.4805 113.079 21.4805 112.243Z" fill="#E9E9E9"/>
<path d="M43.5131 121.681C38.0999 121.681 35.5879 119.587 35.5879 115.104V105.056C35.5879 100.578 38.0999 98.4788 43.5131 98.4788H51.5736C52.3793 98.4788 52.7337 98.8332 52.7337 99.6389V103.55C52.7337 104.356 52.3793 104.71 51.5736 104.71H44.8742C43.5223 104.71 42.9103 105.226 42.9103 106.32V114.019C42.9103 115.115 43.3926 115.597 44.3919 115.597H47.516V110.573C47.516 109.767 47.8704 109.413 48.6761 109.413H53.6691C54.4729 109.413 54.8274 109.767 54.8274 110.573V120.526C54.8274 121.332 54.4729 121.686 53.6691 121.686L43.5131 121.681Z" fill="#E9E9E9"/>
<path d="M59.9082 121.681C59.1025 121.681 58.748 121.326 58.748 120.521V99.6479C58.748 98.8422 59.1025 98.4878 59.9082 98.4878H64.9103C65.716 98.4878 66.0704 98.8422 66.0704 99.6479V115.592H70.4825V110.374C70.4825 109.568 70.8369 109.214 71.6426 109.214H76.3122C77.1179 109.214 77.4723 109.568 77.4723 110.374V120.521C77.4723 121.326 77.1179 121.681 76.3122 121.681H59.9082Z" fill="#E9E9E9"/>
<path d="M90.8002 122.163C82.747 122.163 80.7812 119.521 80.7812 115.586V104.603C80.7812 100.673 82.747 98 90.8002 98C98.8533 98 100.784 100.673 100.784 104.603V115.586C100.784 119.521 98.8533 122.163 90.8002 122.163ZM90.8002 115.951C93.1514 115.951 93.5059 115.308 93.5059 114.439V105.774C93.5059 104.935 93.1514 104.292 90.8002 104.292C88.48 104.292 88.0945 104.935 88.0945 105.774V114.439C88.0945 115.303 88.4781 115.946 90.8002 115.946V115.951Z" fill="#E9E9E9"/>
<path d="M114.539 122.163C106.485 122.163 104.521 119.521 104.521 115.586V104.603C104.521 100.673 106.485 98 114.539 98C122.592 98 124.525 100.673 124.525 104.603V115.586C124.525 119.521 122.592 122.163 114.539 122.163ZM114.539 115.951C116.89 115.951 117.244 115.308 117.244 114.439V105.774C117.244 104.935 116.89 104.292 114.539 104.292C112.22 104.292 111.833 104.935 111.833 105.774V114.439C111.833 115.303 112.228 115.946 114.539 115.946V115.951Z" fill="#E9E9E9"/>
<defs>
<clipPath id="clip0_308_1094">
<rect width="98" height="77" fill="white" transform="translate(14.2617 5)"/>
</clipPath>
</defs>
</svg>
