<svg width="24" height="20" viewBox="0 0 24 20" fill="none" xmlns="http://www.w3.org/2000/svg">
<path fill-rule="evenodd" clip-rule="evenodd" d="M10.7789 19.6458C11.5211 20.118 12.4784 20.118 13.2196 19.6458C15.5766 18.1477 20.7087 14.5664 22.9198 10.5591C25.8341 5.27259 22.4116 0 17.8869 0C15.3081 0 13.7567 1.29749 12.8986 2.41253C12.7955 2.5491 12.6603 2.66024 12.5041 2.73688C12.3479 2.81351 12.1751 2.85346 11.9998 2.85346C11.8245 2.85346 11.6516 2.81351 11.4954 2.73688C11.3392 2.66024 11.204 2.5491 11.101 2.41253C10.2428 1.29749 8.69149 0 6.11263 0C1.58791 0 -1.8346 5.27259 1.08083 10.5591C3.28969 14.5664 8.42402 18.1477 10.7789 19.6458Z" fill="#CCCCCC"/>
</svg>
