<svg width="12" height="20" viewBox="0 0 12 20" fill="none" xmlns="http://www.w3.org/2000/svg">
<path fill-rule="evenodd" clip-rule="evenodd" d="M8.0481 17.3039C8.39288 17.3039 8.72354 17.1669 8.96733 16.9231C9.21113 16.6793 9.3481 16.3487 9.3481 16.0039L9.3481 14.3099C9.3481 13.7024 9.84058 13.2099 10.4481 13.2099C11.0556 13.2099 11.5481 13.7024 11.5481 14.3099L11.5481 16.0039C11.5481 16.9322 11.1793 17.8224 10.523 18.4788C9.86659 19.1352 8.97635 19.5039 8.0481 19.5039L3.6001 19.5039C2.67184 19.5039 1.7816 19.1352 1.12522 18.4788C0.468841 17.8224 0.100096 16.9322 0.100095 16.0039L0.100094 4.01891C0.100482 3.0909 0.4694 2.20058 1.12574 1.54452C1.78207 0.888457 2.67209 0.519906 3.60009 0.519906L8.04809 0.519905C8.97635 0.519905 9.86659 0.888659 10.523 1.54503C11.1793 2.20141 11.5481 3.09165 11.5481 4.01991L11.5481 5.70991C11.5481 6.31742 11.0556 6.80991 10.4481 6.80991C9.84058 6.80991 9.34809 6.31742 9.34809 5.70991L9.34809 4.01991C9.34809 3.67513 9.21113 3.34447 8.96733 3.10067C8.72353 2.85687 8.39287 2.71991 8.04809 2.71991L3.60009 2.71991C3.25541 2.71991 2.92483 2.8568 2.68105 3.10048C2.43727 3.34416 2.30024 3.67468 2.3001 4.01937L2.3001 16.0039C2.3001 16.3487 2.43706 16.6793 2.68086 16.9231C2.92465 17.1669 3.25531 17.3039 3.6001 17.3039L8.0481 17.3039Z" fill="black"/>
</svg>
