<svg width="81" height="72" viewBox="0 0 81 72" fill="none" xmlns="http://www.w3.org/2000/svg">
<path fill-rule="evenodd" clip-rule="evenodd" d="M40.4998 59.968C39.9417 59.968 39.389 59.8581 38.8734 59.6445C38.3578 59.4309 37.8893 59.1179 37.4946 58.7232C37.1 58.3286 36.7869 57.8601 36.5733 57.3444C36.3597 56.8288 36.2498 56.2761 36.2498 55.718C36.2498 55.1599 36.3597 54.6073 36.5733 54.0916C36.7869 53.576 37.1 53.1075 37.4946 52.7128C37.8893 52.3182 38.3578 52.0051 38.8734 51.7915C39.389 51.578 39.9417 51.468 40.4998 51.468C41.627 51.468 42.708 51.9158 43.505 52.7128C44.3021 53.5098 44.7498 54.5909 44.7498 55.718C44.7498 56.8452 44.3021 57.9262 43.505 58.7232C42.708 59.5203 41.627 59.968 40.4998 59.968ZM36.9582 24.6116C36.9582 23.6723 37.3313 22.7714 37.9955 22.1072C38.6597 21.443 39.5605 21.0699 40.4998 21.0699C41.4391 21.0699 42.34 21.443 43.0042 22.1072C43.6683 22.7714 44.0415 23.6723 44.0415 24.6116V42.3199C44.0415 43.2592 43.6683 44.16 43.0042 44.8242C42.34 45.4884 41.4391 45.8616 40.4998 45.8616C39.5605 45.8616 38.6597 45.4884 37.9955 44.8242C37.3313 44.16 36.9582 43.2592 36.9582 42.3199V24.6116ZM79.1536 58.6364L47.8629 4.43823C44.5904 -1.22843 36.4092 -1.22843 33.1367 4.43823L1.84607 58.6364C-1.42289 64.303 2.66065 71.3864 9.2092 71.3864H71.7904C78.3354 71.3864 82.4225 64.303 79.1536 58.6364Z" fill="#EFEFEF"/>
</svg>
