<svg width="40" height="40" viewBox="0 0 40 40" fill="none" xmlns="http://www.w3.org/2000/svg">
<circle cx="20" cy="20" r="20" fill="#5D5D5D"/>
<path d="M24.3407 30H16.6607C13.5393 30 11 27.4607 11 24.3393V16.6593C11 13.5383 13.5393 11 16.6607 11H24.3407C27.4617 11 30 13.5383 30 16.6593V24.3393C30 27.4607 27.4617 30 24.3407 30ZM28.0897 16.6593C28.0896 15.6651 27.6946 14.7115 26.9915 14.0085C26.2885 13.3054 25.3349 12.9104 24.3407 12.9103H16.6607C15.6664 12.9103 14.7128 13.3053 14.0096 14.0084C13.3065 14.7114 12.9115 15.665 12.9114 16.6593V24.3393C12.9114 25.3337 13.3064 26.2873 14.0095 26.9905C14.7127 27.6936 15.6663 28.0886 16.6607 28.0886H24.3407C25.335 28.0885 26.2886 27.6935 26.9916 26.9904C27.6947 26.2872 28.0897 25.3336 28.0897 24.3393V16.6593Z" fill="white"/>
<path d="M20.5003 25.4761C17.7559 25.4761 15.5234 23.2436 15.5234 20.4992C15.5234 17.7548 17.7559 15.5237 20.5003 15.5237C23.2447 15.5237 25.4758 17.7551 25.4758 20.4992C25.4758 23.2432 23.2444 25.4761 20.5003 25.4761ZM20.5003 17.4583C19.8988 17.4582 19.3108 17.6365 18.8106 17.9707C18.3104 18.3048 17.9205 18.7798 17.6903 19.3355C17.4601 19.8913 17.3998 20.5028 17.5172 21.0928C17.6345 21.6827 17.9242 22.2247 18.3495 22.65C18.7748 23.0754 19.3168 23.365 19.9067 23.4824C20.4967 23.5997 21.1082 23.5394 21.664 23.3092C22.2197 23.079 22.6947 22.6891 23.0288 22.1889C23.363 21.6888 23.5413 21.1007 23.5412 20.4992C23.5411 19.6927 23.2207 18.9193 22.6505 18.3491C22.0802 17.7788 21.3068 17.4584 20.5003 17.4583Z" fill="white"/>
<path d="M25.477 24.5713C25.9767 24.5713 26.3818 24.9764 26.3818 25.4761C26.3818 25.9758 25.9767 26.3809 25.477 26.3809C24.9773 26.3809 24.5723 25.9758 24.5723 25.4761C24.5723 24.9764 24.9773 24.5713 25.477 24.5713Z" fill="white"/>
</svg>
