<svg width="40" height="40" viewBox="0 0 40 40" fill="none" xmlns="http://www.w3.org/2000/svg">
<circle cx="20" cy="20" r="20" fill="#5D5D5D"/>
<path d="M28.7305 14.6289C28.3527 14.7947 27.9603 14.9258 27.5583 15.0204C28.0039 14.6016 28.3358 14.0784 28.5233 13.499C28.5351 13.4624 28.5353 13.423 28.524 13.3861C28.5127 13.3493 28.4904 13.3167 28.4599 13.2927C28.4295 13.2687 28.3924 13.2544 28.3536 13.2518C28.3148 13.2491 28.2761 13.2582 28.2426 13.2778C27.684 13.6063 27.0805 13.8533 26.4507 14.0112C26.4141 14.0202 26.3765 14.0248 26.3388 14.0248C26.223 14.0246 26.1114 13.9824 26.025 13.9062C25.355 13.3218 24.4926 12.9995 23.5996 13C23.206 13.0012 22.8147 13.0611 22.439 13.1777C21.853 13.359 21.3244 13.6877 20.905 14.1316C20.4856 14.5756 20.1896 15.1197 20.046 15.7107C19.9385 16.1477 19.9087 16.5999 19.9581 17.047C19.9603 17.0653 19.9584 17.0839 19.9527 17.1014C19.947 17.119 19.9375 17.1351 19.925 17.1487C19.9124 17.1629 19.8969 17.1743 19.8795 17.1822C19.8622 17.19 19.8433 17.1942 19.8242 17.1943H19.811C17.2095 16.9542 14.8633 15.7132 13.2053 13.6993C13.1857 13.6756 13.1606 13.6569 13.1321 13.6449C13.1036 13.6328 13.0726 13.6278 13.0418 13.6301C13.0109 13.6325 12.9811 13.6422 12.9548 13.6585C12.9286 13.6748 12.9067 13.6971 12.8911 13.7235C12.4825 14.4203 12.3193 15.2317 12.4273 16.0302C12.5353 16.8288 12.9082 17.5691 13.4875 18.1349C13.1953 18.0666 12.914 17.9587 12.6515 17.8144C12.6224 17.7985 12.5897 17.7903 12.5565 17.7907C12.5233 17.7911 12.4907 17.8 12.462 17.8165C12.4333 17.833 12.4095 17.8567 12.3928 17.8851C12.376 17.9135 12.3671 17.9457 12.3667 17.9786C12.358 18.6819 12.5557 19.3725 12.9357 19.9668C13.3157 20.561 13.8618 21.0333 14.5077 21.3262H14.4293C14.2221 21.3267 14.0153 21.3078 13.8117 21.27C13.779 21.2638 13.7453 21.2661 13.7139 21.2767C13.6824 21.2873 13.6543 21.3058 13.6322 21.3305C13.6102 21.3551 13.595 21.385 13.5882 21.4172C13.5813 21.4494 13.5831 21.4828 13.5932 21.5142C13.8004 22.1508 14.1809 22.7185 14.6928 23.1549C15.2047 23.5914 15.8282 23.8797 16.4949 23.9881C15.3751 24.7333 14.0558 25.1299 12.7066 25.1269H12.2825C12.2202 25.1263 12.1595 25.1463 12.1098 25.1835C12.0601 25.2208 12.0244 25.2734 12.0081 25.333C11.9933 25.3937 11.9989 25.4576 12.024 25.5149C12.0491 25.5722 12.0925 25.6199 12.1474 25.6506C13.6832 26.5346 15.428 27.0002 17.2045 27C18.7585 27 20.2118 26.6947 21.5246 26.0926C22.7311 25.5381 23.8072 24.7399 24.6836 23.7492C25.5214 22.8056 26.1774 21.7178 26.619 20.5399C27.0465 19.4168 27.2692 18.2275 27.2768 17.0273V16.9723C27.2768 16.88 27.2978 16.7889 27.3382 16.7057C27.3786 16.6225 27.4374 16.5493 27.5102 16.4917C28.0734 16.0394 28.5647 15.5058 28.9676 14.9088C28.9907 14.8746 29.002 14.8339 28.9997 14.7929C28.9974 14.7518 28.9817 14.7126 28.955 14.6811C28.9282 14.6497 28.8918 14.6277 28.8514 14.6185C28.8109 14.6093 28.7685 14.6134 28.7305 14.6301V14.6289Z" fill="white"/>
</svg>
