<svg width="108" height="22" viewBox="0 0 108 22" fill="none" xmlns="http://www.w3.org/2000/svg">
<path d="M1.02258 21.5616C0.31241 21.5616 0 21.2389 0 20.5053V1.50105C0 0.767498 0.31241 0.444824 1.02258 0.444824H14.1969C14.907 0.444824 15.2195 0.767498 15.2195 1.50105V4.93266C15.2195 5.66455 14.907 5.98726 14.1969 5.98726H6.35285V8.24612H11.8892C12.5994 8.24612 12.9118 8.56884 12.9118 9.30239V12.4395C12.9118 13.1731 12.5994 13.4958 11.8892 13.4958H6.35285V16.0175H14.1888C14.899 16.0175 15.2114 16.3402 15.2114 17.0738V20.5053C15.2114 21.2389 14.899 21.5616 14.1888 21.5616H1.02258Z" fill="white"/>
<path d="M17.1719 12.9678V9.04553C17.1719 8.31197 17.4827 7.98926 18.1928 7.98926H25.8034C26.5119 7.98926 26.8243 8.28369 26.8243 9.04553V12.9761C26.8243 13.7379 26.5119 14.0307 25.8034 14.0307H18.1928C17.4827 14.0224 17.1719 13.7297 17.1719 12.9678Z" fill="white"/>
<path d="M36.5912 21.5611C31.8197 21.5611 29.6055 19.6549 29.6055 15.5729V6.42425C29.6055 2.34727 31.8197 0.436035 36.5912 0.436035H43.6961C44.4062 0.436035 44.7186 0.75875 44.7186 1.49231V5.05362C44.7186 5.78717 44.4062 6.10989 43.6961 6.10989H37.7909C36.5992 6.10989 36.0598 6.57893 36.0598 7.57531V14.5849C36.0598 15.5829 36.4849 16.022 37.3658 16.022H40.1195V11.4477C40.1195 10.7141 40.4319 10.3915 41.142 10.3915H45.5431C46.2517 10.3915 46.5641 10.7141 46.5641 11.4477V20.5099C46.5641 21.2434 46.2517 21.5661 45.5431 21.5661L36.5912 21.5611Z" fill="white"/>
<path d="M51.0441 21.5616C50.3339 21.5616 50.0215 21.2389 50.0215 20.5053V1.50105C50.0215 0.767498 50.3339 0.444824 51.0441 0.444824H55.4532C56.1634 0.444824 56.4758 0.767498 56.4758 1.50105V16.0175H60.3648V11.2669C60.3648 10.5333 60.6772 10.2106 61.3874 10.2106H65.5034C66.2136 10.2106 66.526 10.5333 66.526 11.2669V20.5053C66.526 21.2389 66.2136 21.5616 65.5034 21.5616H51.0441Z" fill="white"/>
<path d="M78.2726 22C71.1741 22 69.4414 19.5947 69.4414 16.0118V6.01149C69.4414 2.43353 71.1741 0 78.2726 0C85.371 0 87.0732 2.43353 87.0732 6.01149V16.0118C87.0732 19.5947 85.371 22 78.2726 22ZM78.2726 16.3445C80.3451 16.3445 80.6575 15.759 80.6575 14.9672V7.07771C80.6575 6.31421 80.3451 5.72872 78.2726 5.72872C76.2274 5.72872 75.8877 6.31421 75.8877 7.07771V14.9672C75.8877 15.754 76.2258 16.3395 78.2726 16.3395V16.3445Z" fill="white"/>
<path d="M99.1987 22C92.1003 22 90.3691 19.5947 90.3691 16.0118V6.01149C90.3691 2.43353 92.1003 0 99.1987 0C106.297 0 108.001 2.43353 108.001 6.01149V16.0118C108.001 19.5947 106.297 22 99.1987 22ZM99.1987 16.3445C101.271 16.3445 101.584 15.759 101.584 14.9672V7.07771C101.584 6.31421 101.271 5.72872 99.1987 5.72872C97.1552 5.72872 96.8138 6.31421 96.8138 7.07771V14.9672C96.8138 15.754 97.1616 16.3395 99.1987 16.3395V16.3445Z" fill="white"/>
</svg>
