<svg width="40" height="40" viewBox="0 0 40 40" fill="none" xmlns="http://www.w3.org/2000/svg">
<circle cx="20" cy="20" r="20" fill="#5D5D5D"/>
<path d="M25.8464 13H14.1536C13.0519 13.0001 11.9955 13.4331 11.2165 14.2037C10.4376 14.9743 10 16.0194 10 17.1092V22.8908C10 23.9806 10.4376 25.0257 11.2165 25.7963C11.9955 26.5669 13.0519 26.9999 14.1536 27H25.8464C26.3919 27 26.9321 26.8937 27.436 26.6872C27.94 26.4807 28.3979 26.178 28.7836 25.7964C29.1693 25.4148 29.4752 24.9618 29.684 24.4633C29.8927 23.9648 30.0001 23.4304 30 22.8908V17.1092C30.0001 16.5696 29.8927 16.0353 29.684 15.5367C29.4752 15.0382 29.1693 14.5852 28.7836 14.2036C28.3979 13.822 27.94 13.5193 27.436 13.3128C26.9321 13.1063 26.3919 13 25.8464 13ZM23.0373 20.2815L17.5683 22.8616C17.5349 22.8774 17.4979 22.8846 17.4608 22.8824C17.4238 22.8803 17.3879 22.8689 17.3566 22.8493C17.3252 22.8297 17.2994 22.8026 17.2815 22.7704C17.2636 22.7383 17.2542 22.7022 17.2542 22.6655V17.3439C17.2542 17.3068 17.2638 17.2702 17.2821 17.2378C17.3004 17.2053 17.3268 17.1781 17.3588 17.1586C17.3908 17.1392 17.4273 17.1281 17.4648 17.1266C17.5023 17.1251 17.5396 17.1331 17.5731 17.15L23.0421 19.8927C23.0783 19.9113 23.1086 19.9394 23.1296 19.974C23.1505 20.0086 23.1614 20.0482 23.1609 20.0886C23.1604 20.1289 23.1486 20.1683 23.1268 20.2024C23.1049 20.2365 23.074 20.2639 23.0373 20.2815Z" fill="white"/>
</svg>
