<svg width="18" height="20" viewBox="0 0 18 20" fill="none" xmlns="http://www.w3.org/2000/svg">
<path fill-rule="evenodd" clip-rule="evenodd" d="M8.99991 13.056C8.59867 13.056 8.20135 12.977 7.83066 12.8234C7.45995 12.6699 7.12313 12.4448 6.83941 12.1611C6.55568 11.8774 6.33062 11.5405 6.17707 11.1698C6.02353 10.7991 5.9445 10.4018 5.9445 10.0006C5.9445 9.59934 6.02353 9.20202 6.17707 8.83132C6.33062 8.46062 6.55568 8.12379 6.83941 7.84007C7.12313 7.55635 7.45995 7.33129 7.83066 7.17774C8.20135 7.02419 8.59867 6.94516 8.99991 6.94516C9.81026 6.94516 10.5874 7.26707 11.1604 7.84007C11.7334 8.41307 12.0553 9.19023 12.0553 10.0006C12.0553 10.8109 11.7334 11.5881 11.1604 12.1611C10.5874 12.7341 9.81026 13.056 8.99991 13.056ZM16.5274 11.6268C16.1083 11.1928 15.8743 10.6127 15.8749 10.0093V9.99183C15.8743 9.38842 16.1083 8.80839 16.5274 8.37433L17.3099 7.566C17.6316 7.23266 17.6932 6.726 17.4624 6.32516L16.4141 4.51016C16.3016 4.31478 16.1284 4.16141 15.9209 4.07329C15.7134 3.98517 15.4828 3.9671 15.2641 4.02183L14.1682 4.29516C13.5798 4.4425 12.957 4.35366 12.4332 4.04766L12.4182 4.03933C11.9024 3.73951 11.5227 3.25146 11.3591 2.67766L11.0457 1.58683C10.984 1.3699 10.8532 1.17901 10.6732 1.04308C10.4932 0.907141 10.2738 0.833567 10.0482 0.833496H7.95158C7.48908 0.833496 7.08075 1.141 6.95408 1.58683L6.61658 2.761C6.46839 3.28576 6.12006 3.73135 5.64658 4.00183C5.59767 4.02918 5.54933 4.05751 5.50158 4.08683C5.0265 4.36974 4.45873 4.45304 3.92241 4.3185L2.73491 4.02183C2.51629 3.96717 2.28581 3.98518 2.07833 4.07313C1.87085 4.16108 1.69765 4.3142 1.58491 4.50933L0.537412 6.32516C0.424744 6.52052 0.378689 6.74724 0.406199 6.97108C0.433709 7.19492 0.533291 7.40373 0.689913 7.566L1.47241 8.37433C1.89158 8.8085 2.12575 9.3885 2.12575 9.991V10.0093C2.12575 10.6127 1.89158 11.1927 1.47241 11.6268L1.05325 12.0602C0.791852 12.3304 0.625578 12.6785 0.579571 13.0516C0.533563 13.4248 0.610325 13.8028 0.798246 14.1285L1.58575 15.491C1.81741 15.8927 2.28575 16.0918 2.73575 15.9793L3.92325 15.6827C4.45956 15.5481 5.02734 15.6314 5.50241 15.9143C5.54991 15.9435 5.59825 15.9718 5.64741 15.9993C6.12158 16.2677 6.46741 16.7152 6.61741 17.2402L6.95408 18.4143C7.08075 18.8602 7.48908 19.1668 7.95158 19.1668H10.0482C10.5107 19.1668 10.9191 18.8602 11.0457 18.4143L11.3824 17.2402C11.5324 16.7152 11.8782 16.2677 12.3524 15.9993C12.4016 15.9718 12.4499 15.9435 12.4974 15.9143C12.9725 15.6314 13.5403 15.5481 14.0766 15.6827L15.2641 15.9793C15.4827 16.034 15.7132 16.016 15.9207 15.928C16.1281 15.8401 16.3013 15.687 16.4141 15.4918L17.4624 13.676C17.5751 13.4806 17.6211 13.2539 17.5936 13.0301C17.5661 12.8062 17.4665 12.5974 17.3099 12.4352L16.5266 11.6268H16.5274Z" fill="#808080"/>
</svg>
