<svg width="36" height="36" viewBox="0 0 36 36" fill="none" xmlns="http://www.w3.org/2000/svg">
<circle cx="18" cy="18" r="18" fill="black"/>
<path fill-rule="evenodd" clip-rule="evenodd" d="M16.1467 25C15.8544 25 15.562 24.8833 15.3333 24.6627C15.1198 24.4439 15 24.1477 15 23.839C15 23.5302 15.1198 23.234 15.3333 23.0152L20.2519 17.9949L15.3333 12.9876C15.1198 12.7688 15 12.4726 15 12.1639C15 11.8551 15.1198 11.5589 15.3333 11.3401C15.5476 11.1223 15.8378 11 16.1403 11C16.4428 11 16.733 11.1223 16.9474 11.3401L22.6667 17.1777C22.8802 17.3965 23 17.6927 23 18.0014C23 18.3102 22.8802 18.6064 22.6667 18.8252L16.9474 24.6627C16.7313 24.8833 16.439 25 16.1467 25Z" fill="white"/>
</svg>
